<svg width="99" height="44" viewBox="0 0 99 44" fill="none" xmlns="http://www.w3.org/2000/svg">
<path fill-rule="evenodd" clip-rule="evenodd" d="M2.12202 10.6601L7.10233 7.58308C7.90075 7.08258 8.55634 7.60812 8.55634 8.74623V37.7814C8.55634 38.9076 7.90075 40.246 7.10233 40.7333L2.12202 43.8104C1.32354 44.3109 0.667969 43.7854 0.667969 42.6473V13.612C0.667969 12.4858 1.32354 11.1475 2.12202 10.6601ZM23.8329 3.26665L28.8144 0.189611C29.6129 -0.310914 30.2684 0.214635 30.2684 1.35273V37.7695C30.2684 38.8957 29.6129 40.234 28.8144 40.7214L23.8329 43.7985C23.0345 44.299 22.3789 43.7735 22.3789 42.6353V6.21975C22.3789 5.09357 23.0345 3.75526 23.8329 3.26784V3.26665ZM12.9775 20.443L17.9589 17.366C18.7574 16.8655 19.413 17.391 19.413 18.5291V27.9867C19.413 29.1128 18.7574 30.4511 17.9589 30.9385L12.9775 34.0156C12.179 34.5161 11.5234 33.9906 11.5234 32.8525V23.3949C11.5234 22.2687 12.179 20.9304 12.9775 20.443Z" fill="#16CC53"/>
<path d="M43.3605 6.96558V13.7763H51.7445V6.96558H56.126V25.2883H51.7445V17.5445H43.3605V25.2883H38.9961V6.96558H43.3605Z" fill="#080A15"/>
<path d="M60.0012 25.2883V6.96558H71.2636C75.194 6.96558 77.1489 8.48739 77.1489 11.5323C77.1489 13.3592 76.3518 14.7094 74.7761 15.5472C76.7864 16.2133 77.8001 17.7352 77.8001 20.0567C77.8001 21.6548 77.3116 22.9299 76.3158 23.8619C75.32 24.8129 73.943 25.2705 72.1507 25.2705H60V25.2896L60.0012 25.2883ZM64.3657 17.5064V21.5213H70.1784C71.3015 21.5213 72.0806 21.4069 72.5512 21.1602C73.0038 20.9314 73.2397 20.4178 73.2397 19.6193C73.2397 18.8209 73.0038 18.3061 72.5159 17.9831C72.0273 17.6601 71.2661 17.5076 70.1797 17.5076H64.367L64.3657 17.5064ZM64.3657 14.2911H69.5259C70.631 14.2911 71.4101 14.1576 71.8807 13.8919C72.3513 13.6261 72.5692 13.1315 72.5692 12.3891C72.5692 11.7229 72.3333 11.2665 71.8807 11.0389C71.4101 10.8101 70.631 10.6968 69.5259 10.6968H64.3657V14.2923V14.2911Z" fill="#080A15"/>
<path d="M93.2076 12.5974C93.0084 10.7704 91.596 9.87665 88.9339 9.87665C87.6842 9.87665 86.7244 10.0673 86.0559 10.4284C85.3854 10.7895 85.0594 11.3032 85.0594 11.9693C85.0594 12.6355 85.2954 13.0347 85.7833 13.2635C86.2725 13.4733 87.2136 13.6628 88.5906 13.8153L91.8319 14.1764C94.0414 14.4243 95.6711 14.9939 96.7395 15.8508C97.7899 16.7255 98.3331 17.9435 98.3331 19.5416C98.3331 21.5579 97.5553 23.1001 95.9796 24.1655C94.4046 25.2308 92.1045 25.7636 89.0625 25.7636C83.0499 25.7636 80.0625 23.4993 80.0625 18.9516H84.5355C84.5175 20.0552 84.9341 20.893 85.8026 21.4448C86.6531 21.9965 87.9214 22.2813 89.6057 22.2813C90.8921 22.2813 91.8692 22.0907 92.5571 21.6914C93.2456 21.2922 93.5889 20.7404 93.5889 20.0361C93.5889 19.37 93.3362 18.8944 92.8277 18.6287C92.3211 18.3617 91.434 18.1723 90.1656 18.0388L87.0876 17.7158C84.8421 17.487 83.1771 16.9543 82.1087 16.1177C81.0216 15.2811 80.4784 14.1014 80.4784 12.5783C80.4784 10.8086 81.2396 9.36301 82.7426 8.20225C84.2636 7.06058 86.3098 6.48975 88.8806 6.48975C91.6519 6.48975 93.7888 7.02247 95.3098 8.08785C96.8308 9.1533 97.5733 10.656 97.5733 12.5974H93.2102H93.2076Z" fill="#080A15"/>
<path d="M39 37.317L42.321 29.9543H44.0019L47.1971 37.317H45.2451L44.6061 35.7554H41.5174L40.89 37.317H38.9961H39ZM42.1196 34.2656H43.9748L43.0375 31.9933L42.1196 34.2656Z" fill="#080A15"/>
<path d="M55.4724 32.6427H53.5631C53.3307 31.7309 52.6336 31.275 51.4678 31.275C50.7668 31.275 50.2149 31.4832 49.8082 31.9032C49.4016 32.3233 49.2002 32.9012 49.2002 33.6372C49.2002 34.373 49.4016 34.9511 49.8082 35.3709C50.2149 35.791 50.7668 35.9991 51.4678 35.9991C52.0797 35.9991 52.5716 35.8629 52.9395 35.5935C53.3094 35.3244 53.5244 34.9439 53.5824 34.4591H55.5034C55.4144 35.3781 55.0038 36.1177 54.2757 36.6741C53.5476 37.2306 52.6123 37.5105 51.4678 37.5105C50.1859 37.5105 49.1692 37.1587 48.4062 36.4515C47.6491 35.7444 47.2695 34.8074 47.2695 33.6372C47.2695 32.4669 47.6491 31.53 48.4062 30.8226C49.1653 30.1155 50.1859 29.7637 51.4678 29.7637C52.6026 29.7637 53.5282 30.0329 54.2525 30.5714C54.9767 31.1099 55.3834 31.7991 55.4724 32.6464V32.6427Z" fill="#080A15"/>
<path d="M55.707 37.317L59.028 29.9543H60.7089L63.9021 37.317H61.9521L61.3131 35.7554H58.2244L57.5951 37.317H55.7031H55.707ZM58.8266 34.2656H60.6818L59.7446 31.9933L58.8266 34.2656Z" fill="#080A15"/>
<path d="M64.4961 37.317V29.9543H68.0766C68.6382 29.9543 69.1456 30.0226 69.6084 30.1553C70.0693 30.2917 70.4779 30.4999 70.8439 30.7835C71.206 31.0671 71.4906 31.4513 71.6959 31.9358C71.8992 32.4206 71.9999 32.9841 71.9999 33.6339C71.9999 34.3231 71.8896 34.9118 71.6746 35.4037C71.4597 35.8955 71.1479 36.276 70.7412 36.5488C70.3345 36.8217 69.8834 37.0192 69.3818 37.1375C68.8803 37.256 68.3051 37.3135 67.6642 37.3135H64.4961V37.317ZM66.2525 31.4655V35.8056H67.6216C68.4252 35.8056 69.0371 35.6191 69.4496 35.2421C69.864 34.8652 70.0731 34.3194 70.0731 33.6051C70.0731 32.1801 69.2559 31.4655 67.6196 31.4655H66.2486H66.2525Z" fill="#080A15"/>
<path d="M73.1797 29.9543H79.4054V31.4655H74.9361V32.6933H78.9136V34.2046H74.9361V35.8056H79.4054V37.317H73.1797V29.9543Z" fill="#080A15"/>
<path d="M80.7148 29.9543H82.9824L85.2423 35.2277L87.5583 29.9543H89.8065V37.317H88.1179V32.3989L85.9452 37.317H84.4871L82.4034 32.3163V37.317H80.7109V29.9543H80.7148Z" fill="#080A15"/>
<path d="M90.3945 29.9543H92.6253L94.3721 32.582L96.111 29.9543H98.3321L95.2125 34.1723V37.317H93.4561V34.1723L90.3945 29.9543Z" fill="#080A15"/>
</svg>
