<svg width="64" height="64" viewBox="0 0 64 64" fill="none" xmlns="http://www.w3.org/2000/svg">
  <rect width="64" height="64" fill="#110D0F"/>
  <path fill-rule="evenodd" clip-rule="evenodd" d="M3.09 15.5L6.18 13.03C6.55 12.8 6.84 13.06 6.84 13.52V54.3C6.84 54.76 6.55 55.78 6.18 56.01L3.09 58.48C2.72 58.71 2.43 58.45 2.43 57.99V17.21C2.43 16.75 2.72 15.73 3.09 15.5ZM34.66 4.75L37.75 2.28C38.12 2.05 38.41 2.31 38.41 2.77V54.88C38.41 55.34 38.12 56.36 37.75 56.59L34.66 59.06C34.29 59.29 34 59.03 34 58.57V6.46C34 6 34.29 4.98 34.66 4.75ZM18.88 29.73L21.97 27.26C22.34 27.03 22.63 27.29 22.63 27.75V40.73C22.63 41.19 22.34 42.21 21.97 42.44L18.88 44.91C18.51 45.14 18.22 44.88 18.22 44.42V31.44C18.22 30.98 18.51 29.96 18.88 29.73Z" fill="#16CC53"/>
</svg>
