<svg width="32" height="32" viewBox="0 0 32 32" fill="none" xmlns="http://www.w3.org/2000/svg">
<path d="M0 11.4939C0 7.47064 0 5.45903 0.763916 3.92235C1.43588 2.57066 2.50809 1.4717 3.82688 0.782974C5.32615 0 7.28881 0 11.2141 0H20.007C23.9323 0 25.895 0 27.3942 0.782974C28.713 1.4717 29.7852 2.57066 30.4572 3.92235C31.2211 5.45903 31.2211 7.47064 31.2211 11.4939V20.5061C31.2211 24.5294 31.2211 26.541 30.4572 28.0777C29.7852 29.4293 28.713 30.5283 27.3942 31.217C25.895 32 23.9323 32 20.007 32H11.2141C7.28881 32 5.32615 32 3.82688 31.217C2.50809 30.5283 1.43588 29.4293 0.763916 28.0777C0 26.541 0 24.5294 0 20.5061V11.4939Z" fill="url(#paint0_linear_2871_13039)"/>
<path opacity="0.4" d="M11.3373 15.1279C11.6897 14.5023 11.8659 14.1896 12.1124 13.9621C12.3305 13.7608 12.5875 13.6087 12.8666 13.5158C13.182 13.4107 13.5344 13.4107 14.2392 13.4107L19.3431 13.4107C20.1594 13.4107 20.5675 13.4107 20.8034 13.5864C21.0092 13.7397 21.1419 13.9752 21.1685 14.2345C21.199 14.5318 20.9949 14.894 20.5868 15.6186L19.8806 16.8722C19.8817 16.8722 19.8824 16.8735 19.8819 16.8744C19.5303 17.4985 19.3542 17.8109 19.108 18.0381C18.8899 18.2394 18.633 18.3914 18.3538 18.4844C18.0384 18.5894 17.686 18.5894 16.9812 18.5894L11.8773 18.5894C11.061 18.5894 10.6529 18.5894 10.417 18.4137C10.2112 18.2605 10.0785 18.0249 10.0519 17.7656C10.0214 17.4684 10.2255 17.1061 10.6336 16.3816L10.3548 16.8722L11.3373 15.1279Z" fill="white"/>
<path d="M0.288036 26.6554C0 25.2692 0 23.4126 0 20.5061V20.1225L19.041 20.1225C19.8572 20.1225 20.2654 20.1225 20.5013 20.2982C20.7071 20.4515 20.8398 20.687 20.8664 20.9463C20.8968 21.2436 20.6928 21.6058 20.2846 22.3303L18.8157 24.9382C18.4633 25.5638 18.2871 25.8766 18.0406 26.1041C17.8225 26.3053 17.5655 26.4574 17.2864 26.5503C16.9709 26.6554 16.6186 26.6554 15.9138 26.6554L0.288036 26.6554Z" fill="white"/>
<path d="M30.9331 5.34454C31.2211 6.73069 31.2211 8.58732 31.2211 11.4938V11.8774L12.1801 11.8774C11.3639 11.8774 10.9557 11.8774 10.7198 11.7017C10.514 11.5485 10.3813 11.3129 10.3547 11.0536C10.3243 10.7564 10.5283 10.3941 10.9364 9.66958L12.4054 7.06174C12.7578 6.43615 12.934 6.12336 13.1805 5.89588C13.3986 5.6946 13.6556 5.54255 13.9347 5.4496C14.2501 5.34454 14.6025 5.34454 15.3073 5.34454L30.9331 5.34454Z" fill="white"/>
<defs>
<linearGradient id="paint0_linear_2871_13039" x1="15.6106" y1="0" x2="15.6106" y2="32" gradientUnits="userSpaceOnUse">
<stop offset="0.213542" stop-color="#0FD647"/>
<stop offset="1" stop-color="#0FD647" stop-opacity="0.7"/>
</linearGradient>
</defs>
</svg>
